<?xml version="1.0" encoding="utf-8"?>
<!-- Generator: Adobe Illustrator 16.0.0, SVG Export Plug-In . SVG Version: 6.00 Build 0)  -->
<!DOCTYPE svg PUBLIC "-//W3C//DTD SVG 1.1//EN" "http://www.w3.org/Graphics/SVG/1.1/DTD/svg11.dtd">
<svg version="1.1" id="Слой_1" xmlns="http://www.w3.org/2000/svg" xmlns:xlink="http://www.w3.org/1999/xlink" x="0px" y="0px"
	 width="24.812px" height="22.885px" viewBox="0 0 24.812 22.885" enable-background="new 0 0 24.812 22.885" xml:space="preserve">
<g>
	<path fill="#1A1A1A" d="M19.779,0H8.033C5.301,0,2.812,1.862,2.812,3.906V8h2V3.906C4.812,3.171,6.287,2,8.033,2h11.746
		c1.559,0,3.033,1.561,3.033,3.211v13.052c0,1.508-1.361,2.737-3.033,2.737H8.033c-1.784,0-3.221-0.784-3.221-1.433V16h-2v3.567
		C2.812,21.716,5.467,23,8.033,23h11.746c2.776,0,5.033-2.125,5.033-4.737V5.211C24.812,2.435,22.46,0,19.779,0z"/>
	<polygon fill="#1A1A1A" points="11.414,16.425 12.477,17.483 18.206,11.729 12.498,5.972 11.432,7.028 15.369,11 -0.188,11 
		-0.188,13 14.824,13 	"/>
</g>
</svg>
